<svg width="64" height="62" viewBox="0 0 64 62" fill="none" xmlns="http://www.w3.org/2000/svg">
<g id="bi:chat" clip-path="url(#clip0_630_4910)">
<g id="Group">
<path id="Vector" d="M11.3054 46.0892C11.7143 46.493 12.0277 46.9805 12.2231 47.517C12.4185 48.0535 12.4913 48.6258 12.4361 49.1931C12.1592 51.8187 11.6343 54.4133 10.8681 56.9431C16.364 55.6915 19.7206 54.2422 21.2452 53.4827C22.11 53.0519 23.1059 52.9499 24.0424 53.196C26.7271 53.9 29.494 54.2543 32.2724 54.25C48.0155 54.25 59.8503 43.3729 59.8503 31C59.8503 18.631 48.0155 7.75 32.2724 7.75C16.5294 7.75 4.69458 18.631 4.69458 31C4.69458 36.6885 7.12537 41.9663 11.3054 46.0892ZM9.36312 61.2211C8.42968 61.4031 7.49321 61.5698 6.55411 61.721C5.76617 61.845 5.16734 61.039 5.47858 60.3182C5.82839 59.5068 6.14902 58.6835 6.43986 57.8499L6.45168 57.8111C7.42873 55.0211 8.22454 51.8126 8.51608 48.825C3.68208 44.0588 0.754883 37.82 0.754883 31C0.754883 16.0192 14.8669 3.875 32.2724 3.875C49.678 3.875 63.79 16.0192 63.79 31C63.79 45.9808 49.678 58.125 32.2724 58.125C29.1508 58.1291 26.0422 57.7305 23.026 56.9393C20.9773 57.9584 16.5688 59.8145 9.36312 61.2211Z" fill="#1858A4"/>
</g>
</g>
<defs>
<clipPath id="clip0_630_4910">
<rect width="63.0351" height="62" fill="white" transform="translate(0.754883)"/>
</clipPath>
</defs>
</svg>
