<svg width="66" height="64" viewBox="0 0 66 64" fill="none" xmlns="http://www.w3.org/2000/svg">
<g id="bi:info-circle-fill" clip-path="url(#clip0_630_4918)">
<g id="Group">
<path id="Vector" d="M33.2354 64C41.864 64 50.1393 60.6286 56.2406 54.6274C62.342 48.6263 65.7697 40.4869 65.7697 32C65.7697 23.5131 62.342 15.3737 56.2406 9.37258C50.1393 3.37142 41.864 0 33.2354 0C24.6068 0 16.3316 3.37142 10.2302 9.37258C4.12888 15.3737 0.701172 23.5131 0.701172 32C0.701172 40.4869 4.12888 48.6263 10.2302 54.6274C16.3316 60.6286 24.6068 64 33.2354 64ZM37.0175 26.352L32.9508 45.172C32.6661 46.532 33.0687 47.304 34.1871 47.304C34.976 47.304 36.1676 47.024 36.9769 46.32L36.619 47.984C35.4518 49.368 32.8776 50.376 30.6612 50.376C27.8022 50.376 26.5862 48.688 27.3752 45.1L30.3765 31.228C30.6368 30.056 30.4009 29.632 29.2093 29.348L27.3752 29.024L27.7087 27.5L37.0216 26.352H37.0175ZM33.2354 22C32.1569 22 31.1224 21.5786 30.3598 20.8284C29.5971 20.0783 29.1686 19.0609 29.1686 18C29.1686 16.9391 29.5971 15.9217 30.3598 15.1716C31.1224 14.4214 32.1569 14 33.2354 14C34.314 14 35.3484 14.4214 36.1111 15.1716C36.8737 15.9217 37.3022 16.9391 37.3022 18C37.3022 19.0609 36.8737 20.0783 36.1111 20.8284C35.3484 21.5786 34.314 22 33.2354 22Z" fill="#DD7A01"/>
</g>
</g>
<defs>
<clipPath id="clip0_630_4918">
<rect width="65.0685" height="64" fill="white" transform="translate(0.701172)"/>
</clipPath>
</defs>
</svg>
