<svg width="44" height="44" viewBox="0 0 44 44" fill="none" xmlns="http://www.w3.org/2000/svg">
<path d="M17.953 22.2449C20.0008 22.2449 21.5114 20.7358 21.5114 18.6898C21.5114 16.6438 20.0008 15.1346 17.953 15.1346C15.9051 15.1346 14.3945 16.6438 14.3945 18.6898C14.3945 20.7358 15.9033 22.2449 17.953 22.2449Z" fill="black"/>
<path d="M36.2525 8.02441H7.785C5.82252 8.02441 4.22656 9.51935 4.22656 11.3574V33.1326C4.22656 34.9707 5.82252 36.4656 7.785 36.4656H36.2525C38.2149 36.4656 39.8109 34.9707 39.8109 33.1326V11.3574C39.8109 9.51935 38.2149 8.02441 36.2525 8.02441ZM36.2525 32.9104L7.785 32.8909V11.5796L36.2525 11.5991V32.9104Z" fill="black"/>
<path d="M36.2525 8.02441H7.785C5.82252 8.02441 4.22656 9.51935 4.22656 11.3574V33.1326C4.22656 34.9707 5.82252 36.4656 7.785 36.4656H36.2525C38.2149 36.4656 39.8109 34.9707 39.8109 33.1326V11.3574C39.8109 9.51935 38.2149 8.02441 36.2525 8.02441ZM36.2525 32.9104L7.785 32.8909V11.5796L36.2525 11.5991V32.9104Z" stroke="black"/>
<path d="M25.577 16.9122H32.6939V20.4674H25.577V16.9122ZM27.3562 24.0225H32.6939V27.5777H27.3562V24.0225ZM24.5628 28.5305C24.5628 26.0881 21.5809 23.5781 17.9531 23.5781C14.3252 23.5781 11.3433 26.0881 11.3433 28.5305V29.3552H24.5628V28.5305Z" fill="black"/>
</svg>
