<svg width="81" height="78" viewBox="0 0 81 78" fill="none" xmlns="http://www.w3.org/2000/svg">
<g id="eva:email-outline">
<path id="Vector" d="M63.606 13H17.3464C14.7173 13 12.196 14.0272 10.337 15.8557C8.47797 17.6842 7.43359 20.1641 7.43359 22.75V55.25C7.43359 57.8359 8.47797 60.3158 10.337 62.1443C12.196 63.9728 14.7173 65 17.3464 65H63.606C66.2351 65 68.7564 63.9728 70.6154 62.1443C72.4744 60.3158 73.5188 57.8359 73.5188 55.25V22.75C73.5188 20.1641 72.4744 17.6842 70.6154 15.8557C68.7564 14.0272 66.2351 13 63.606 13ZM61.3922 19.5L40.4762 34.9375L19.5602 19.5H61.3922ZM63.606 58.5H17.3464C16.47 58.5 15.6296 58.1576 15.0099 57.5481C14.3902 56.9386 14.0421 56.1119 14.0421 55.25V23.5625L38.4936 41.6C39.0656 42.0219 39.7613 42.25 40.4762 42.25C41.1911 42.25 41.8868 42.0219 42.4588 41.6L66.9103 23.5625V55.25C66.9103 56.1119 66.5622 56.9386 65.9425 57.5481C65.3228 58.1576 64.4824 58.5 63.606 58.5Z" fill="#1858A4"/>
</g>
</svg>
