<svg width="32" height="31" viewBox="0 0 32 31" fill="none" xmlns="http://www.w3.org/2000/svg">
<g id="fa-regular:address-book" clip-path="url(#clip0_630_4950)">
<path id="Vector" d="M30.4353 9.6875C30.8847 9.6875 31.2523 9.36055 31.2523 8.96094V6.53906C31.2523 6.13945 30.8847 5.8125 30.4353 5.8125H29.0737V2.90625C29.0737 1.30176 27.6099 0 25.8057 0H4.01941C2.21523 0 0.751465 1.30176 0.751465 2.90625V28.0938C0.751465 29.6982 2.21523 31 4.01941 31H25.8057C27.6099 31 29.0737 29.6982 29.0737 28.0938V25.1875H30.4353C30.8847 25.1875 31.2523 24.8605 31.2523 24.4609V22.0391C31.2523 21.6395 30.8847 21.3125 30.4353 21.3125H29.0737V17.4375H30.4353C30.8847 17.4375 31.2523 17.1105 31.2523 16.7109V14.2891C31.2523 13.8895 30.8847 13.5625 30.4353 13.5625H29.0737V9.6875H30.4353ZM25.8057 28.0938H4.01941V2.90625H25.8057V28.0938ZM14.9126 15.5C17.3159 15.5 19.2698 13.7623 19.2698 11.625C19.2698 9.4877 17.3159 7.75 14.9126 7.75C12.5093 7.75 10.5553 9.4877 10.5553 11.625C10.5553 13.7623 12.5093 15.5 14.9126 15.5ZM8.81241 23.25H21.0128C21.857 23.25 22.5378 22.7293 22.5378 22.0875V20.925C22.5378 18.9996 20.4885 17.4375 17.9627 17.4375C17.2274 17.4375 16.6895 17.9219 14.9126 17.9219C13.0812 17.9219 12.6386 17.4375 11.8625 17.4375C9.33664 17.4375 7.28736 18.9996 7.28736 20.925V22.0875C7.28736 22.7293 7.96819 23.25 8.81241 23.25Z" fill="black"/>
</g>
<defs>
<clipPath id="clip0_630_4950">
<rect width="30.5009" height="31" fill="white" transform="translate(0.751465)"/>
</clipPath>
</defs>
</svg>
