<svg width="72" height="70" viewBox="0 0 72 70" fill="none" xmlns="http://www.w3.org/2000/svg">
<g id="fluent:clipboard-task-20-filled">
<g id="Group">
<path id="Vector" d="M31.0584 7C29.9541 6.99943 28.8768 7.33575 27.975 7.9626C27.0732 8.58945 26.3913 9.47598 26.0232 10.5H20.3831C18.9674 10.5 17.6098 11.0531 16.6088 12.0377C15.6078 13.0223 15.0454 14.3576 15.0454 15.75V57.75C15.0454 59.1424 15.6078 60.4777 16.6088 61.4623C17.6098 62.4469 18.9674 63 20.3831 63H52.409C53.8246 63 55.1823 62.4469 56.1833 61.4623C57.1843 60.4777 57.7466 59.1424 57.7466 57.75V15.75C57.7466 14.3576 57.1843 13.0223 56.1833 12.0377C55.1823 11.0531 53.8246 10.5 52.409 10.5H46.7689C46.4008 9.47598 45.7188 8.58945 44.817 7.9626C43.9152 7.33575 42.8379 6.99943 41.7337 7H31.0584ZM29.2791 12.25C29.2791 11.7859 29.4666 11.3408 29.8003 11.0126C30.1339 10.6844 30.5865 10.5 31.0584 10.5H41.7337C42.2055 10.5 42.6581 10.6844 42.9918 11.0126C43.3254 11.3408 43.5129 11.7859 43.5129 12.25C43.5129 12.7141 43.3254 13.1592 42.9918 13.4874C42.6581 13.8156 42.2055 14 41.7337 14H31.0584C30.5865 14 30.1339 13.8156 29.8003 13.4874C29.4666 13.1592 29.2791 12.7141 29.2791 12.25ZM46.5518 34.489L34.0973 46.739C33.932 46.902 33.7357 47.0313 33.5195 47.1195C33.3033 47.2077 33.0716 47.2531 32.8376 47.2531C32.6036 47.2531 32.3718 47.2077 32.1557 47.1195C31.9395 47.0313 31.7432 46.902 31.5779 46.739L26.2402 41.489C26.0748 41.3263 25.9436 41.1331 25.8541 40.9205C25.7645 40.708 25.7185 40.4801 25.7185 40.25C25.7185 40.0199 25.7645 39.792 25.8541 39.5795C25.9436 39.3669 26.0748 39.1737 26.2402 39.011C26.5743 38.6824 27.0275 38.4978 27.4999 38.4978C27.7339 38.4978 27.9655 38.5431 28.1817 38.6312C28.3978 38.7192 28.5942 38.8483 28.7596 39.011L32.8376 43.0255L44.0324 32.011C44.3665 31.6824 44.8196 31.4978 45.2921 31.4978C45.7646 31.4978 46.2177 31.6824 46.5518 32.011C46.8859 32.3396 47.0736 32.7853 47.0736 33.25C47.0736 33.7147 46.8859 34.1604 46.5518 34.489Z" fill="#DD7A01"/>
</g>
</g>
</svg>
