<svg width="36" height="34" viewBox="0 0 36 34" fill="none" xmlns="http://www.w3.org/2000/svg">
<path d="M22.6827 22.8246L25.1024 20.4446C25.4263 20.126 25.8382 19.9078 26.2869 19.8172C26.7357 19.7265 27.2016 19.7673 27.627 19.9346L30.5739 21.0949C31.0082 21.2658 31.3805 21.5608 31.6428 21.9419C31.905 22.3229 32.0452 22.7725 32.0451 23.2326V28.5037C32.0459 28.817 31.9816 29.1271 31.8563 29.4152C31.731 29.7032 31.5472 29.963 31.3162 30.1787C31.0853 30.3945 30.812 30.5616 30.5131 30.6698C30.2142 30.7781 29.8959 30.8252 29.5779 30.8083C8.92154 29.5439 4.74966 12.3356 3.97513 5.74601C3.93762 5.42385 3.96987 5.09754 4.06977 4.78852C4.16968 4.47951 4.33496 4.1948 4.55476 3.95312C4.77455 3.71144 5.04388 3.51827 5.34502 3.38631C5.64616 3.25436 5.97229 3.1866 6.30196 3.18751H11.566C12.0338 3.18749 12.4909 3.32535 12.8783 3.58329C13.2657 3.84123 13.5656 4.20742 13.7394 4.63463L14.918 7.53313C15.088 7.95152 15.1296 8.40979 15.0374 8.85117C14.9452 9.29254 14.7234 9.69762 14.3994 10.0162L11.9797 12.3962C11.9797 12.3962 13.3214 21.6739 22.6827 22.8246Z" fill="black"/>
<path d="M22.3231 4.25V6.375H27.2771L20.1626 13.3726L21.6901 14.875L28.8045 7.87738V12.75H30.965V4.25H22.3231Z" fill="black"/>
</svg>
