<svg width="38" height="30" viewBox="0 0 38 30" fill="none" xmlns="http://www.w3.org/2000/svg">
<rect width="38" height="30" fill="#E5E5E5"/>
<g id="5. Customer info" clip-path="url(#clip0_603_3610)">
<rect width="1920" height="1080" transform="translate(-122 -547)" fill="white"/>
<g id="Customer info">
<g id="LogIn Outline" filter="url(#filter0_d_603_3610)">
<rect x="-122" y="-547" width="1920" height="1080" fill="#FFFCFC"/>
<rect x="-121.5" y="-546.5" width="1919" height="1079" stroke="black"/>
</g>
</g>
<g id="Customer info_2">
<g id="LogIn Outline_2" filter="url(#filter1_d_603_3610)">
<rect x="-122" y="-547" width="1920" height="1080" fill="#FFFCFC"/>
<rect x="-121.5" y="-546.5" width="1919" height="1079" stroke="black"/>
</g>
</g>
<g id="Group 127">
<g id="Group 117">
<g id="Group 56">
<g id="Rectangle 11" filter="url(#filter2_d_603_3610)">
<rect x="-42" y="-450" width="1766" height="967" rx="5" fill="white"/>
</g>
</g>
</g>
<g id="ProfileBox">
<path id="Vector" d="M31.5833 0C33.1 0 34.5547 0.607828 35.6272 1.68977C36.6997 2.77171 37.3022 4.23914 37.3022 5.76923V24.2308C37.3022 25.7609 36.6997 27.2283 35.6272 28.3102C34.5547 29.3922 33.1 30 31.5833 30H6.42008C4.90333 30 3.44871 29.3922 2.3762 28.3102C1.3037 27.2283 0.701172 25.7609 0.701172 24.2308V5.76923C0.701172 4.23914 1.3037 2.77171 2.3762 1.68977C3.44871 0.607828 4.90333 0 6.42008 0H31.5833ZM35.0146 9.14077L19.5827 18.3023C19.4368 18.3887 19.2738 18.4414 19.1052 18.4566C18.9367 18.4717 18.767 18.449 18.6082 18.39L18.4206 18.3023L2.98874 9.14538V24.2308C2.98874 25.1488 3.35025 26.0293 3.99376 26.6784C4.63726 27.3276 5.51003 27.6923 6.42008 27.6923H31.5833C32.4933 27.6923 33.3661 27.3276 34.0096 26.6784C34.6531 26.0293 35.0146 25.1488 35.0146 24.2308V9.14077ZM31.5833 2.30769H6.42008C5.51003 2.30769 4.63726 2.67239 3.99376 3.32155C3.35025 3.97072 2.98874 4.85117 2.98874 5.76923V6.46615L19.0017 15.9692L35.0146 6.46154V5.76923C35.0146 4.85117 34.6531 3.97072 34.0096 3.32155C33.3661 2.67239 32.4933 2.30769 31.5833 2.30769Z" fill="black"/>
</g>
</g>
</g>
<defs>
<filter id="filter0_d_603_3610" x="-126" y="-547" width="1928" height="1088" filterUnits="userSpaceOnUse" color-interpolation-filters="sRGB">
<feFlood flood-opacity="0" result="BackgroundImageFix"/>
<feColorMatrix in="SourceAlpha" type="matrix" values="0 0 0 0 0 0 0 0 0 0 0 0 0 0 0 0 0 0 127 0" result="hardAlpha"/>
<feOffset dy="4"/>
<feGaussianBlur stdDeviation="2"/>
<feColorMatrix type="matrix" values="0 0 0 0 0 0 0 0 0 0 0 0 0 0 0 0 0 0 0.25 0"/>
<feBlend mode="normal" in2="BackgroundImageFix" result="effect1_dropShadow_603_3610"/>
<feBlend mode="normal" in="SourceGraphic" in2="effect1_dropShadow_603_3610" result="shape"/>
</filter>
<filter id="filter1_d_603_3610" x="-126" y="-547" width="1928" height="1088" filterUnits="userSpaceOnUse" color-interpolation-filters="sRGB">
<feFlood flood-opacity="0" result="BackgroundImageFix"/>
<feColorMatrix in="SourceAlpha" type="matrix" values="0 0 0 0 0 0 0 0 0 0 0 0 0 0 0 0 0 0 127 0" result="hardAlpha"/>
<feOffset dy="4"/>
<feGaussianBlur stdDeviation="2"/>
<feColorMatrix type="matrix" values="0 0 0 0 0 0 0 0 0 0 0 0 0 0 0 0 0 0 0.25 0"/>
<feBlend mode="normal" in2="BackgroundImageFix" result="effect1_dropShadow_603_3610"/>
<feBlend mode="normal" in="SourceGraphic" in2="effect1_dropShadow_603_3610" result="shape"/>
</filter>
<filter id="filter2_d_603_3610" x="-46" y="-450" width="1774" height="975" filterUnits="userSpaceOnUse" color-interpolation-filters="sRGB">
<feFlood flood-opacity="0" result="BackgroundImageFix"/>
<feColorMatrix in="SourceAlpha" type="matrix" values="0 0 0 0 0 0 0 0 0 0 0 0 0 0 0 0 0 0 127 0" result="hardAlpha"/>
<feOffset dy="4"/>
<feGaussianBlur stdDeviation="2"/>
<feComposite in2="hardAlpha" operator="out"/>
<feColorMatrix type="matrix" values="0 0 0 0 0 0 0 0 0 0 0 0 0 0 0 0 0 0 0.25 0"/>
<feBlend mode="normal" in2="BackgroundImageFix" result="effect1_dropShadow_603_3610"/>
<feBlend mode="normal" in="SourceGraphic" in2="effect1_dropShadow_603_3610" result="shape"/>
</filter>
<clipPath id="clip0_603_3610">
<rect width="1920" height="1080" fill="white" transform="translate(-122 -547)"/>
</clipPath>
</defs>
</svg>
