<svg width="52" height="54" viewBox="0 0 52 54" fill="none" xmlns="http://www.w3.org/2000/svg">
<path d="M35.75 37.125V47.25H9.75V6.75H26V3.375H9.75C8.88805 3.375 8.0614 3.73058 7.4519 4.36351C6.84241 4.99645 6.5 5.85489 6.5 6.75V47.25C6.5 48.1451 6.84241 49.0035 7.4519 49.6365C8.0614 50.2694 8.88805 50.625 9.75 50.625H35.75C36.6119 50.625 37.4386 50.2694 38.0481 49.6365C38.6576 49.0035 39 48.1451 39 47.25V37.125H35.75Z" fill="#FFFCFC"/>
<path d="M48.0025 9.72008L42.64 4.15133C42.154 3.65662 41.5006 3.37952 40.82 3.37952C40.1395 3.37952 39.486 3.65662 39 4.15133L16.25 27.7763V37.1251H25.2363L47.9863 13.5001C48.4626 12.9954 48.7295 12.3168 48.7295 11.6101C48.7295 10.9034 48.4626 10.2248 47.9863 9.72008H48.0025ZM23.8875 33.7501H19.5V29.1938L34.84 13.247L39.2438 17.8201L23.8875 33.7501ZM41.535 15.4407L37.1313 10.8676L40.82 7.03696L45.2238 11.6101L41.535 15.4407Z" fill="#FFFCFC"/>
</svg>
