<svg width="52" height="52" viewBox="0 0 52 52" fill="none" xmlns="http://www.w3.org/2000/svg">
<g id=" ">
<path id="Vector" d="M23.8335 30.3334H19.5002C19.5002 25.1617 21.5546 20.2018 25.2116 16.5448C28.8685 12.8878 33.8284 10.8334 39.0002 10.8334V15.1667C30.6152 15.1667 23.8335 21.9484 23.8335 30.3334ZM39.0002 23.8334V19.5C33.0202 19.5 28.1668 24.3534 28.1668 30.3334H32.5002C32.5002 26.7367 35.4035 23.8334 39.0002 23.8334ZM15.1668 8.66671C15.1668 6.26171 13.2385 4.33337 10.8335 4.33337C8.4285 4.33337 6.50016 6.26171 6.50016 8.66671C6.50016 11.0717 8.4285 13 10.8335 13C13.2385 13 15.1668 11.0717 15.1668 8.66671ZM24.8085 9.75004H20.4752C20.2237 11.2636 19.4433 12.6387 18.2728 13.6307C17.1023 14.6226 15.6178 15.1669 14.0835 15.1667H7.5835C5.78516 15.1667 4.3335 16.6184 4.3335 18.4167V23.8334H17.3335V18.9367C19.341 18.3036 21.1189 17.0961 22.4474 15.4633C23.7759 13.8306 24.5968 11.8443 24.8085 9.75004ZM41.1668 36.8334C43.5718 36.8334 45.5002 34.905 45.5002 32.5C45.5002 30.095 43.5718 28.1667 41.1668 28.1667C38.7618 28.1667 36.8335 30.095 36.8335 32.5C36.8335 34.905 38.7618 36.8334 41.1668 36.8334ZM44.4168 39H37.9168C36.3826 39.0003 34.898 38.4559 33.7275 37.464C32.557 36.4721 31.7766 35.0969 31.5252 33.5834H27.1918C27.4035 35.6776 28.2244 37.6639 29.5529 39.2967C30.8814 40.9294 32.6594 42.137 34.6668 42.77V47.6667H47.6668V42.25C47.6668 40.4517 46.2152 39 44.4168 39Z" fill="#FFFCFC"/>
</g>
</svg>
