<svg width="40" height="48" viewBox="0 0 40 48" fill="none" xmlns="http://www.w3.org/2000/svg">
<g id=" ">
<g id="Chat">
<path id="Vector" d="M35 3C35.663 3 36.2989 3.31607 36.7678 3.87868C37.2366 4.44129 37.5 5.20435 37.5 6V30C37.5 30.7957 37.2366 31.5587 36.7678 32.1213C36.2989 32.6839 35.663 33 35 33H11.035C9.70903 33.0003 8.43746 33.6327 7.5 34.758L2.5 40.758V6C2.5 5.20435 2.76339 4.44129 3.23223 3.87868C3.70107 3.31607 4.33696 3 5 3H35ZM5 0C3.67392 0 2.40215 0.632141 1.46447 1.75736C0.526784 2.88258 0 4.4087 0 6L0 44.379C5.25372e-05 44.6758 0.0734815 44.9659 0.210993 45.2126C0.348505 45.4593 0.543917 45.6515 0.772498 45.7649C1.00108 45.8783 1.25255 45.9078 1.49509 45.8496C1.73763 45.7914 1.96033 45.6481 2.135 45.438L9.2675 36.879C9.73623 36.3164 10.372 36.0002 11.035 36H35C36.3261 36 37.5979 35.3679 38.5355 34.2426C39.4732 33.1174 40 31.5913 40 30V6C40 4.4087 39.4732 2.88258 38.5355 1.75736C37.5979 0.632141 36.3261 0 35 0L5 0Z" fill="#FFFCFC"/>
<path id="Vector_2" d="M7.5 10.5C7.5 10.1022 7.6317 9.72064 7.86612 9.43934C8.10054 9.15804 8.41848 9 8.75 9H31.25C31.5815 9 31.8995 9.15804 32.1339 9.43934C32.3683 9.72064 32.5 10.1022 32.5 10.5C32.5 10.8978 32.3683 11.2794 32.1339 11.5607C31.8995 11.842 31.5815 12 31.25 12H8.75C8.41848 12 8.10054 11.842 7.86612 11.5607C7.6317 11.2794 7.5 10.8978 7.5 10.5ZM7.5 18C7.5 17.6022 7.6317 17.2206 7.86612 16.9393C8.10054 16.658 8.41848 16.5 8.75 16.5H31.25C31.5815 16.5 31.8995 16.658 32.1339 16.9393C32.3683 17.2206 32.5 17.6022 32.5 18C32.5 18.3978 32.3683 18.7794 32.1339 19.0607C31.8995 19.342 31.5815 19.5 31.25 19.5H8.75C8.41848 19.5 8.10054 19.342 7.86612 19.0607C7.6317 18.7794 7.5 18.3978 7.5 18ZM7.5 25.5C7.5 25.1022 7.6317 24.7206 7.86612 24.4393C8.10054 24.158 8.41848 24 8.75 24H21.25C21.5815 24 21.8995 24.158 22.1339 24.4393C22.3683 24.7206 22.5 25.1022 22.5 25.5C22.5 25.8978 22.3683 26.2794 22.1339 26.5607C21.8995 26.842 21.5815 27 21.25 27H8.75C8.41848 27 8.10054 26.842 7.86612 26.5607C7.6317 26.2794 7.5 25.8978 7.5 25.5Z" fill="#FFFCFC"/>
</g>
</g>
</svg>
